<svg width="835" height="490" viewBox="0 0 835 490" fill="none" xmlns="http://www.w3.org/2000/svg" xmlns:xlink="http://www.w3.org/1999/xlink">
<path d="M0 12.093C0 5.77321 5.69017 0.975626 11.919 2.04361L16.7776 2.87665C283.624 48.6297 556.376 47.8587 822.96 0.597836C829.131 -0.496247 834.793 4.25015 834.793 10.5178L834.793 477.296C834.793 484.515 828.379 490.049 821.237 488.991C555.225 449.565 284.873 449.316 18.7892 488.251L13.7062 488.994C6.48076 490.052 0 484.45 0 477.148L0 12.093Z" fill="url(#pattern0_14_158)"/>
<path d="M0 12.093C0 5.77321 5.69017 0.975626 11.919 2.04361L16.7776 2.87665C283.624 48.6297 556.376 47.8587 822.96 0.597836C829.131 -0.496247 834.793 4.25015 834.793 10.5178L834.793 477.296C834.793 484.515 828.379 490.049 821.237 488.991C555.225 449.565 284.873 449.316 18.7892 488.251L13.7062 488.994C6.48076 490.052 0 484.45 0 477.148L0 12.093Z" fill="#8A6EFF"/>
</svg>
